<svg width="55" height="55" viewBox="0 0 55 55" fill="none" xmlns="http://www.w3.org/2000/svg">
<circle cx="27.5" cy="27.5" r="27.5" fill="#22AB2D"/>
<path d="M20.1133 17.8889C20.2 19.1744 20.4167 20.4311 20.7633 21.63L19.03 23.3633C18.4378 21.63 18.0622 19.7956 17.9322 17.8889H20.1133ZM34.3556 35.2511C35.5833 35.5978 36.84 35.8144 38.1111 35.9011V38.0533C36.2044 37.9233 34.37 37.5478 32.6222 36.97L34.3556 35.2511ZM21.5 15H16.4444C15.65 15 15 15.65 15 16.4444C15 30.0078 25.9922 41 39.5556 41C40.35 41 41 40.35 41 39.5556V34.5144C41 33.72 40.35 33.07 39.5556 33.07C37.7644 33.07 36.0167 32.7811 34.3989 32.2467C34.2559 32.1932 34.1037 32.1687 33.9511 32.1744C33.5756 32.1744 33.2144 32.3189 32.9256 32.5933L29.7478 35.7711C25.6535 33.6771 22.3228 30.3465 20.2289 26.2522L23.4067 23.0744C23.8111 22.67 23.9267 22.1067 23.7678 21.6011C23.2208 19.937 22.9429 18.1962 22.9444 16.4444C22.9444 15.65 22.2944 15 21.5 15Z" fill="white"/>
</svg>
