<svg width="19" height="13" viewBox="0 0 19 13" fill="none" xmlns="http://www.w3.org/2000/svg">
<path d="M3 8L0 3.5C0.666667 3.5 2.2 3.2 3 2C3.8 0.8 5.33333 0.166667 6 0L12.5 12.5L11.5 13L9.54222 9.32916L7 13L6 12C7.49631 10.0049 8.93955 7.91033 8.99958 7.9993L7.5 5.5C5.5 5.5 5 8 3 8Z" fill="black"/>
<path d="M12.5 1.00008L10.5 5.00008C11.1667 5.16672 12.6 5.8 13 7C13.4 8.2 14.8333 8.83333 15.5 9C16.6667 7.33333 18.9 4.1 18.5 4.5C18 5 16 3.50008 15 2.00008C14.2 0.800076 13 0.83341 12.5 1.00008Z" fill="black"/>
</svg>
