<svg width="14" height="20" viewBox="0 0 14 20" fill="none" xmlns="http://www.w3.org/2000/svg">
<path fill-rule="evenodd" clip-rule="evenodd" d="M5.84667 0.08775C5.15289 0.203144 4.18244 0.55408 3.49675 0.937557C2.64602 1.41332 1.41149 2.64785 0.935731 3.49857C-0.080699 5.316 -0.273188 7.30489 0.378455 9.25573C0.66381 10.1102 1.14691 10.8478 2.29108 12.176C3.53438 13.6195 4.25878 14.586 4.91626 15.6786C5.52268 16.6866 6.49423 18.6429 6.7694 19.41C6.87303 19.6991 6.97733 19.9357 7.00111 19.9357C7.02489 19.9357 7.12985 19.6972 7.2344 19.4057C7.51091 18.6346 8.56538 16.515 9.12917 15.597C9.76671 14.5587 10.5269 13.5503 11.6767 12.2177C13.1816 10.4733 13.6022 9.71731 13.8789 8.25866C14.1861 6.63915 13.9064 5.00044 13.0665 3.49857C12.5873 2.64168 11.4309 1.47781 10.5472 0.963005C9.15695 0.153081 7.41003 -0.17224 5.84667 0.08775ZM6.0757 4.07396C4.8118 4.47838 3.91393 5.69547 3.91393 7.00427C3.91393 8.32124 4.86537 9.57079 6.16106 9.95552C7.73744 10.4236 9.43572 9.50196 9.93133 7.90939C10.1329 7.26192 10.1299 6.73535 9.92099 6.07303C9.40952 4.45134 7.69005 3.55748 6.0757 4.07396Z" fill="#D0CFCD"/>
</svg>
