<svg width="26" height="26" viewBox="0 0 26 26" fill="none" xmlns="http://www.w3.org/2000/svg">
<path d="M13 15C11.9391 15 10.9217 15.4214 10.1716 16.1716C9.42143 16.9217 9 17.9391 9 19C9 20.0609 9.42143 21.0783 10.1716 21.8284C10.9217 22.5786 11.9391 23 13 23C14.0609 23 15.0783 22.5786 15.8284 21.8284C16.5786 21.0783 17 20.0609 17 19C17 17.9391 16.5786 16.9217 15.8284 16.1716C15.0783 15.4214 14.0609 15 13 15ZM11.2857 19C11.2857 18.5453 11.4663 18.1093 11.7878 17.7878C12.1093 17.4663 12.5453 17.2857 13 17.2857C13.4547 17.2857 13.8907 17.4663 14.2122 17.7878C14.5337 18.1093 14.7143 18.5453 14.7143 19C14.7143 19.4547 14.5337 19.8907 14.2122 20.2122C13.8907 20.5337 13.4547 20.7143 13 20.7143C12.5453 20.7143 12.1093 20.5337 11.7878 20.2122C11.4663 19.8907 11.2857 19.4547 11.2857 19Z" fill="#38B964"/>
<path d="M19.8417 5.43002L15.9058 0L1.43371 11.3766L0.631429 11.3681V11.3803H0V26H26V11.3803H24.809L22.4392 4.55892L19.8417 5.43002ZM22.1929 11.3803H9.77724L19.0246 8.27843L20.909 7.68511L22.1929 11.3803ZM17.3952 6.25116L7.84952 9.45288L15.4093 3.50996L17.3952 6.25116ZM2.47619 21.3326V16.0452C2.99888 15.8636 3.47366 15.5693 3.86571 15.1837C4.25776 14.7982 4.55714 14.3311 4.7419 13.8169H21.2581C21.4427 14.3313 21.742 14.7986 22.1341 15.1844C22.5261 15.5702 23.001 15.8647 23.5238 16.0464V21.3339C23.001 21.5155 22.5261 21.81 22.1341 22.1958C21.742 22.5816 21.4427 23.0489 21.2581 23.5634H4.74438C4.55889 23.0489 4.259 22.5816 3.8666 22.1957C3.47419 21.8097 2.99916 21.5149 2.47619 21.3326Z" fill="#38B964"/>
</svg>
